<svg xmlns="http://www.w3.org/2000/svg" width="819" height="469" viewBox="0 0 819 469" version="1.1">
    <path d="M 114.575 16.917 C 113.228 18.405, 113.078 19.277, 113.902 20.817 C 114.719 22.344, 114.630 22.928, 113.514 23.356 C 112.716 23.662, 111.798 23.482, 111.473 22.956 C 111.148 22.430, 110.346 22.014, 109.691 22.031 C 108.203 22.070, 102 30.195, 102 32.106 C 102 32.881, 100.875 35.629, 99.500 38.212 C 96.685 43.499, 96.431 45.283, 98.273 46.812 C 99.218 47.596, 102.066 46.185, 109.332 41.334 C 117.330 35.994, 120.269 34.603, 125.422 33.721 C 131.150 32.739, 132.051 32.833, 135.286 34.741 C 137.917 36.294, 138.972 36.514, 139.328 35.587 C 140.051 33.703, 135.203 27.985, 133.452 28.657 C 132.408 29.057, 132.158 28.752, 132.596 27.611 C 132.936 26.725, 132.716 26, 132.107 26 C 131.498 26, 131 25.520, 131 24.933 C 131 22.831, 125.724 17, 123.822 17 C 122.755 17, 122.160 17.450, 122.500 18 C 122.862 18.586, 121.805 19, 119.942 19 C 117.259 19, 116.848 18.690, 117.290 17 C 117.950 14.474, 116.817 14.440, 114.575 16.917 M 110.333 20.667 C 110.700 21.033, 111.300 21.033, 111.667 20.667 C 112.033 20.300, 111.733 20, 111 20 C 110.267 20, 109.967 20.300, 110.333 20.667 M 157.429 21.994 C 151.500 22.864, 149.451 23.842, 145.159 27.851 C 141.294 31.461, 141.242 31.996, 144.750 32.015 C 148.404 32.036, 150.209 33.292, 149.445 35.284 C 148.673 37.294, 142.183 41.231, 140.923 40.453 C 140.415 40.139, 140 40.310, 140 40.833 C 140 41.355, 141.049 42.046, 142.331 42.368 C 143.613 42.690, 147.464 45.662, 150.890 48.972 C 157.761 55.613, 160.136 56.659, 164.537 54.986 L 167.495 53.861 162.748 49.376 C 156.635 43.601, 156.589 42, 162.531 42 C 168.025 42, 169.059 40.296, 166.093 36.131 C 162.783 31.483, 162.966 31.195, 170.250 29.574 C 171.762 29.237, 173 28.304, 173 27.500 C 173 26.696, 171.762 25.741, 170.250 25.378 C 168.738 25.015, 166.695 23.882, 165.711 22.859 C 164.727 21.837, 163.602 21.056, 163.211 21.125 C 162.820 21.193, 160.218 21.584, 157.429 21.994 M 184.750 28.139 C 182.137 30.377, 180 32.952, 180 33.861 C 180 37.503, 197.780 45.257, 200.656 42.870 C 202.234 41.561, 202.435 38.387, 200.996 37.498 C 200.444 37.157, 200.278 35.739, 200.627 34.348 L 201.262 31.819 199.264 33.067 C 196.201 34.980, 194 33.586, 194 29.731 C 194 26.400, 192.528 23.969, 190.550 24.035 C 189.972 24.054, 187.363 25.901, 184.750 28.139 M 269.200 25.200 C 268.540 25.860, 268 28.094, 268 30.165 C 268 35.045, 270.878 36.966, 274.567 34.548 C 275.905 33.671, 277.056 32.289, 277.125 31.477 C 277.194 30.665, 277.336 29.438, 277.441 28.750 C 278.056 24.734, 272.192 22.208, 269.200 25.200 M 200.769 27.956 C 200.078 30.417, 200.491 31.842, 201.581 30.753 C 201.900 30.433, 202.004 29.121, 201.810 27.836 L 201.459 25.500 200.769 27.956 M 156.597 27.844 C 156.251 28.404, 156.455 29.163, 157.050 29.531 C 158.588 30.481, 159.580 29.180, 158.296 27.896 C 157.578 27.178, 157.019 27.161, 156.597 27.844 M 135 32.500 C 135 32.775, 135.225 33, 135.500 33 C 135.775 33, 136 32.775, 136 32.500 C 136 32.225, 135.775 32, 135.500 32 C 135.225 32, 135 32.225, 135 32.500 M 161 32.500 C 161 32.775, 161.225 33, 161.500 33 C 161.775 33, 162 32.775, 162 32.500 C 162 32.225, 161.775 32, 161.500 32 C 161.225 32, 161 32.225, 161 32.500 M 67.049 44.075 C 62.864 44.990, 61 47.312, 61 51.609 C 61 56.764, 61.875 58, 65.524 58 C 67.344 58, 68.995 58.486, 69.193 59.080 C 69.442 59.827, 70.416 59.768, 72.348 58.887 C 74.337 57.981, 75.339 57.929, 75.822 58.707 C 76.433 59.692, 80.378 60.383, 83.817 60.106 C 87.240 59.831, 81.053 50, 77.458 50 C 75.807 50, 74.575 49.078, 73.533 47.063 C 71.605 43.336, 71.226 43.162, 67.049 44.075 M 218.821 48.828 C 212.527 51.077, 211.889 51.992, 216.583 52.039 L 220.500 52.078 217.398 53.429 C 215.692 54.171, 213.215 54.573, 211.893 54.320 C 209.951 53.949, 209.275 54.433, 208.363 56.850 C 207.634 58.781, 205.745 60.600, 203.028 61.986 L 198.823 64.131 199.161 69.567 C 199.348 72.557, 199.430 75.002, 199.344 75.001 C 199.258 75.001, 196.853 72.750, 193.999 69.999 C 191.146 67.249, 188.404 65.251, 187.906 65.558 C 186.706 66.300, 186.738 72.720, 187.945 73.466 C 188.465 73.787, 190.807 78.063, 193.149 82.968 C 197.628 92.348, 199.872 94.209, 204.021 91.989 C 206.258 90.792, 206.564 88.964, 204.820 87.220 C 203.913 86.313, 205.008 84.756, 209.548 80.497 C 216.283 74.179, 218.427 73.404, 234.143 71.612 C 240.131 70.929, 245.518 69.882, 246.117 69.283 C 248.209 67.191, 251.022 56.909, 250.016 55.030 C 248.530 52.254, 242.700 50.004, 236.331 49.751 C 233.124 49.623, 229.905 48.952, 229.179 48.259 C 227.453 46.615, 224.569 46.773, 218.821 48.828 M 77 51.500 C 77 51.775, 77.225 52, 77.500 52 C 77.775 52, 78 51.775, 78 51.500 C 78 51.225, 77.775 51, 77.500 51 C 77.225 51, 77 51.225, 77 51.500 M 76 54.500 C 76 54.775, 76.225 55, 76.500 55 C 76.775 55, 77 54.775, 77 54.500 C 77 54.225, 76.775 54, 76.500 54 C 76.225 54, 76 54.225, 76 54.500 M 132.500 57.872 C 127.471 60.997, 121 67.800, 121 69.960 C 121 71.082, 120.550 72, 120 72 C 118.291 72, 118.900 76.051, 121.068 79.096 C 123.612 82.669, 125.868 82.740, 132.895 79.469 C 135.863 78.088, 138.504 77.171, 138.765 77.432 C 139.632 78.299, 137.969 84.780, 136.586 85.929 C 134.750 87.452, 136.195 93.861, 138.845 95.950 C 140.152 96.981, 141.047 99.340, 141.520 103 C 142.444 110.159, 143.340 111.698, 147.626 113.488 C 152.977 115.724, 159.995 114.888, 162.349 111.734 C 164.074 109.423, 164.130 108.710, 162.970 103.847 C 161.591 98.069, 160.219 96.654, 153.011 93.571 C 150.530 92.510, 148.361 91.546, 148.190 91.428 C 148.020 91.311, 149.138 88.963, 150.674 86.212 L 153.467 81.210 158.292 80.746 C 164.011 80.196, 165.913 78.805, 164.035 76.542 C 163.109 75.426, 160.854 75, 155.873 75 L 148.990 75 143.980 69.883 C 140.497 66.326, 138.634 63.431, 137.866 60.383 C 137.259 57.973, 136.478 56.002, 136.131 56.004 C 135.784 56.006, 134.150 56.847, 132.500 57.872 M 77 57.500 C 77 57.775, 77.225 58, 77.500 58 C 77.775 58, 78 57.775, 78 57.500 C 78 57.225, 77.775 57, 77.500 57 C 77.225 57, 77 57.225, 77 57.500 M 7.904 63.616 C 5.916 66.012, 4.136 71.805, 4.712 74.007 C 4.989 75.067, 6.068 76.204, 7.109 76.535 C 8.150 76.865, 9.467 78.005, 10.036 79.068 C 11.457 81.722, 14.266 81.488, 17.923 78.411 C 23.600 73.635, 21.538 65.077, 14.221 63.044 C 9.438 61.716, 9.484 61.712, 7.904 63.616 M 206.030 65.958 C 202.856 70.415, 203.890 72, 209.969 72 C 216.042 72, 216.395 70.744, 211.623 66.119 L 208.246 62.846 206.030 65.958 M 257.494 67.850 C 253.078 69.281, 243.775 75.383, 239.518 79.640 C 235.562 83.596, 235.148 84.408, 236.140 86.261 C 238.726 91.094, 243.749 96, 246.111 96 C 248.920 96, 250.167 99.300, 249.120 103.963 C 247.909 109.352, 249.289 114.977, 252.503 117.750 C 253.938 118.987, 255.488 120, 255.948 120 C 256.408 120, 257.611 117.239, 258.622 113.865 C 259.632 110.491, 261.256 107.233, 262.230 106.624 C 263.551 105.799, 264 104.213, 264 100.366 C 264 94.298, 264.445 94, 273.514 94 L 279.864 94 281.995 91.007 C 283.167 89.361, 283.874 87.606, 283.566 87.107 C 283.258 86.609, 280.642 85.647, 277.753 84.970 C 271.025 83.392, 270 82.512, 270 78.312 C 270 74.711, 268.962 72.147, 266.200 68.921 C 264.563 67.009, 261.318 66.610, 257.494 67.850 M 6 70.500 C 6 70.775, 6.225 71, 6.500 71 C 6.775 71, 7 70.775, 7 70.500 C 7 70.225, 6.775 70, 6.500 70 C 6.225 70, 6 70.225, 6 70.500 M 318.344 74.996 C 317.083 75.505, 315.909 77.139, 315.515 78.933 L 314.841 82 310.456 82 C 304.853 82, 303.428 84.108, 305.265 89.679 L 306.525 93.500 314.219 93.500 L 321.913 93.500 321.531 95.500 C 321.321 96.600, 321.115 97.838, 321.074 98.250 C 321.033 98.662, 320.355 99, 319.567 99 C 318.779 99, 317.822 99.985, 317.440 101.188 C 316.931 102.791, 317.344 103.860, 318.984 105.188 C 320.215 106.185, 321.847 107, 322.611 107 C 324.820 107, 324.232 108.683, 321.250 110.894 C 314.691 115.758, 313.798 116.695, 312.331 120.250 C 311.479 122.313, 310.611 124, 310.400 124 C 310.190 124, 306.577 122.812, 302.371 121.359 L 294.725 118.719 289.366 121.609 C 286.419 123.199, 284.005 124.804, 284.003 125.175 C 284.002 125.546, 287.085 131.846, 290.856 139.175 L 297.712 152.500 294.905 158.500 C 293.159 162.232, 292.080 166.238, 292.049 169.098 L 292 173.696 295.750 175.344 C 297.813 176.251, 303.775 178.482, 309 180.303 L 318.500 183.613 326.678 198.056 C 331.176 206, 335.497 213.400, 336.280 214.500 C 337.063 215.600, 341.882 223.700, 346.989 232.500 C 352.096 241.300, 360.101 255.025, 364.778 263 C 369.454 270.975, 375.446 281.195, 378.091 285.710 C 380.737 290.226, 385.198 298.326, 388.005 303.710 C 390.812 309.095, 393.548 313.941, 394.084 314.479 C 394.719 315.118, 395.907 314.421, 397.494 312.479 C 398.833 310.841, 399.944 309.155, 399.964 308.733 C 399.984 308.311, 401.960 304.711, 404.356 300.733 C 408.239 294.286, 422.313 269.985, 437.793 243 C 440.790 237.775, 444.589 231.025, 446.235 228 C 447.882 224.975, 455.771 211.250, 463.766 197.500 C 471.762 183.750, 479.179 170.925, 480.248 169 C 481.318 167.075, 483.570 163.025, 485.253 160 C 486.936 156.975, 490.637 150.675, 493.478 146 C 496.318 141.325, 500.583 133.960, 502.956 129.633 L 507.269 121.766 460.261 122.151 L 413.253 122.537 414.817 119.258 C 416.057 116.657, 416.125 115.724, 415.145 114.740 C 412.433 112.016, 373.063 108.084, 366.500 109.880 C 361.309 111.302, 356.515 114.284, 354.515 117.337 L 352.921 119.769 355.383 125.150 C 356.737 128.110, 358.153 131.762, 358.531 133.266 C 359.138 135.687, 358.937 136, 356.769 136 C 354.204 136, 352 132.742, 352 128.953 C 352 127.879, 351.632 127, 351.183 127 C 350.733 127, 349.574 124.490, 348.607 121.422 C 347.640 118.354, 344.608 110.878, 341.870 104.809 C 339.132 98.740, 337.028 93.657, 337.196 93.512 C 338.386 92.481, 341.949 92.109, 342.475 92.959 C 342.829 93.532, 343.541 94, 344.059 94 C 345.279 94, 345.287 91.269, 344.068 90.833 C 343.556 90.650, 342.941 88.513, 342.702 86.084 C 342.249 81.487, 340.169 79, 336.776 79 C 335.762 79, 332.713 77.875, 330 76.500 C 324.863 73.897, 321.989 73.526, 318.344 74.996 M 223.500 82.970 C 221.226 83.424, 220.576 84.044, 220.814 85.534 C 221.489 89.765, 220.992 91.415, 218.144 94.400 L 215.186 97.500 216.651 99.654 C 218.280 102.049, 219.082 107.425, 219.183 116.626 L 219.250 122.752 226.125 122.893 C 232.964 123.034, 234.308 122.331, 231.560 120.050 C 230.768 119.393, 229.980 117.875, 229.810 116.677 C 229.516 114.619, 228.431 114.266, 225.059 115.131 C 222.937 115.675, 222.609 112.442, 223.985 104.522 C 225.459 96.029, 226.610 92.755, 229.154 89.823 C 232.958 85.436, 229.873 81.697, 223.500 82.970 M 163.865 89.750 C 163.774 90.987, 163.655 92.525, 163.600 93.167 C 163.545 93.808, 164.063 94.521, 164.750 94.750 C 166.247 95.249, 166.423 91.202, 165 89 C 164.209 87.776, 164 87.914, 163.865 89.750 M 322 91.059 C 322 91.641, 322.450 91.840, 323 91.500 C 323.550 91.160, 324 90.684, 324 90.441 C 324 90.198, 323.550 90, 323 90 C 322.450 90, 322 90.477, 322 91.059 M 327.173 91.291 C 326.378 92.250, 326.603 92.896, 328.051 93.800 C 329.123 94.469, 330 94.590, 330 94.067 C 330 93.545, 329.502 92.810, 328.893 92.434 C 328.122 91.957, 328.197 91.490, 329.143 90.890 C 329.944 90.383, 330.038 90.024, 329.372 90.015 C 328.752 90.007, 327.763 90.581, 327.173 91.291 M 326 95 C 326 95.550, 326.477 96, 327.059 96 C 327.641 96, 327.840 95.550, 327.500 95 C 327.160 94.450, 326.684 94, 326.441 94 C 326.198 94, 326 94.450, 326 95 M 255.500 96 C 255.840 96.550, 256.316 97, 256.559 97 C 256.802 97, 257 96.550, 257 96 C 257 95.450, 256.523 95, 255.941 95 C 255.359 95, 255.160 95.450, 255.500 96 M 187.184 99.886 C 185.664 102.591, 185 105.468, 185 109.351 C 185 114.183, 185.422 115.411, 188.148 118.516 C 192.825 123.843, 195.802 125, 204.828 125 C 215.005 125, 215.499 124.466, 214.592 114.448 C 214.217 110.313, 213.686 106.344, 213.411 105.629 C 212.674 103.707, 206.027 100.708, 201.912 100.440 C 199.939 100.311, 196.470 99.260, 194.202 98.103 C 191.935 96.946, 189.920 96, 189.724 96 C 189.528 96, 188.385 97.749, 187.184 99.886 M 200 98.500 C 200 98.775, 200.225 99, 200.500 99 C 200.775 99, 201 98.775, 201 98.500 C 201 98.225, 200.775 98, 200.500 98 C 200.225 98, 200 98.225, 200 98.500 M 261 99.500 C 261 99.775, 261.225 100, 261.500 100 C 261.775 100, 262 99.775, 262 99.500 C 262 99.225, 261.775 99, 261.500 99 C 261.225 99, 261 99.225, 261 99.500 M 126.742 114.228 C 121.047 115.414, 120.176 117.397, 122.003 125.012 C 122.938 128.912, 123.860 130.393, 126.057 131.530 C 131.622 134.407, 133.706 133.384, 139.320 125.013 C 144.564 117.195, 143.942 113.648, 137.509 114.692 C 135.638 114.996, 133.963 114.749, 133.568 114.110 C 133.191 113.500, 132.571 113.053, 132.191 113.118 C 131.811 113.183, 129.359 113.683, 126.742 114.228 M 235.978 118.557 C 235.409 120.053, 235.143 121.476, 235.386 121.720 C 236.355 122.688, 240.101 119.763, 239.810 118.265 C 239.281 115.535, 237.063 115.704, 235.978 118.557 M 579.222 121.988 L 521.944 122.500 518.457 128.500 C 516.539 131.800, 514.081 136.353, 512.996 138.618 C 511.911 140.883, 510.343 143.300, 509.512 143.990 C 508.680 144.680, 508 145.653, 508 146.151 C 508 148.877, 492.177 178.431, 475.957 206 C 468.975 217.867, 468.806 215.774, 478.054 232.059 C 482.565 240.001, 490.751 254.150, 496.246 263.500 C 519.635 303.297, 524.594 310.722, 530.262 314.436 L 532.898 316.163 537.556 306.832 C 540.119 301.699, 543.324 296.026, 544.679 294.224 C 547.351 290.669, 556.161 276.470, 567.464 257.500 C 575.664 243.738, 576.962 241.592, 590.357 219.648 C 595.778 210.767, 601.644 200.800, 603.392 197.500 C 605.140 194.200, 607.280 190.375, 608.147 189 C 609.015 187.625, 611.698 183.387, 614.110 179.582 C 616.525 175.772, 618.364 171.730, 618.203 170.582 C 617.965 168.888, 618.099 168.779, 618.925 170 C 619.738 171.202, 620.070 170.856, 620.592 168.264 C 620.951 166.485, 622.314 163.874, 623.622 162.463 C 624.930 161.052, 626 159.470, 626 158.948 C 626 158.427, 626.351 158, 626.781 158 C 627.601 158, 630.355 152.040, 630.130 150.750 C 630.059 150.338, 630.378 150, 630.841 150 C 631.304 150, 632.898 147.863, 634.385 145.250 C 635.871 142.637, 639.297 136.900, 641.999 132.500 C 648.505 121.904, 648.483 120.933, 641.750 121.238 C 638.862 121.368, 610.725 121.706, 579.222 121.988 M 459.344 237.257 C 454.341 244.782, 441.706 266.477, 420.182 304.500 C 415.512 312.750, 410.887 320.850, 409.904 322.500 C 408.922 324.150, 406.009 329.325, 403.432 334 C 400.854 338.675, 395.255 348.350, 390.989 355.500 C 386.723 362.650, 377.137 378.850, 369.687 391.500 C 362.236 404.150, 353.615 418.456, 350.530 423.291 C 345.355 431.399, 342.539 436.891, 343.222 437.542 C 343.779 438.073, 575.941 438.828, 577.940 438.305 C 579.073 438.009, 580 437.153, 580 436.404 C 580 435.259, 571.830 420.988, 557.729 397.500 C 556.078 394.750, 553.836 390.925, 552.746 389 C 549.315 382.938, 523.875 340.731, 520.500 335.500 C 518.725 332.750, 515.379 326.900, 513.065 322.500 C 510.750 318.100, 505.739 309.376, 501.928 303.114 C 498.118 296.852, 495 291.599, 495 291.440 C 495 291.282, 490.432 283.356, 484.849 273.826 C 467.263 243.811, 463 236.257, 463 235.112 C 463 233.101, 461.536 233.960, 459.344 237.257 M 517 257.822 C 517 258.205, 517.918 259.092, 519.041 259.793 C 521.474 261.313, 523.517 260.469, 521.815 258.647 C 520.552 257.295, 517 256.686, 517 257.822 M 521.954 264.086 C 520.320 267.140, 521.448 267.491, 523.388 264.531 C 524.300 263.139, 524.602 262, 524.058 262 C 523.515 262, 522.568 262.939, 521.954 264.086 M 520 268.500 C 520 268.775, 520.225 269, 520.500 269 C 520.775 269, 521 268.775, 521 268.500 C 521 268.225, 520.775 268, 520.500 268 C 520.225 268, 520 268.225, 520 268.500"
          stroke="none" fill="#34539d" fill-rule="evenodd"/>
    <path d="M 0 234.501 L 0 469.002 409.750 468.751 L 819.500 468.500 819.752 234.250 L 820.004 -0 410.002 -0 L 0 0 0 234.501 M 0.492 235 C 0.492 363.975, 0.608 416.737, 0.750 352.250 C 0.892 287.762, 0.892 182.237, 0.750 117.750 C 0.608 53.262, 0.492 106.025, 0.492 235 M 114.575 16.917 C 113.228 18.405, 113.078 19.277, 113.902 20.817 C 114.719 22.344, 114.630 22.928, 113.514 23.356 C 112.716 23.662, 111.798 23.482, 111.473 22.956 C 111.148 22.430, 110.346 22.014, 109.691 22.031 C 108.203 22.070, 102 30.195, 102 32.106 C 102 32.881, 100.875 35.629, 99.500 38.212 C 96.685 43.499, 96.431 45.283, 98.273 46.812 C 99.218 47.596, 102.066 46.185, 109.332 41.334 C 117.330 35.994, 120.269 34.603, 125.422 33.721 C 131.150 32.739, 132.051 32.833, 135.286 34.741 C 137.917 36.294, 138.972 36.514, 139.328 35.587 C 140.051 33.703, 135.203 27.985, 133.452 28.657 C 132.408 29.057, 132.158 28.752, 132.596 27.611 C 132.936 26.725, 132.716 26, 132.107 26 C 131.498 26, 131 25.520, 131 24.933 C 131 22.831, 125.724 17, 123.822 17 C 122.755 17, 122.160 17.450, 122.500 18 C 122.862 18.586, 121.805 19, 119.942 19 C 117.259 19, 116.848 18.690, 117.290 17 C 117.950 14.474, 116.817 14.440, 114.575 16.917 M 110.333 20.667 C 110.700 21.033, 111.300 21.033, 111.667 20.667 C 112.033 20.300, 111.733 20, 111 20 C 110.267 20, 109.967 20.300, 110.333 20.667 M 157.429 21.994 C 151.500 22.864, 149.451 23.842, 145.159 27.851 C 141.294 31.461, 141.242 31.996, 144.750 32.015 C 148.404 32.036, 150.209 33.292, 149.445 35.284 C 148.673 37.294, 142.183 41.231, 140.923 40.453 C 140.415 40.139, 140 40.310, 140 40.833 C 140 41.355, 141.049 42.046, 142.331 42.368 C 143.613 42.690, 147.464 45.662, 150.890 48.972 C 157.761 55.613, 160.136 56.659, 164.537 54.986 L 167.495 53.861 162.748 49.376 C 156.635 43.601, 156.589 42, 162.531 42 C 168.025 42, 169.059 40.296, 166.093 36.131 C 162.783 31.483, 162.966 31.195, 170.250 29.574 C 171.762 29.237, 173 28.304, 173 27.500 C 173 26.696, 171.762 25.741, 170.250 25.378 C 168.738 25.015, 166.695 23.882, 165.711 22.859 C 164.727 21.837, 163.602 21.056, 163.211 21.125 C 162.820 21.193, 160.218 21.584, 157.429 21.994 M 184.750 28.139 C 182.137 30.377, 180 32.952, 180 33.861 C 180 37.503, 197.780 45.257, 200.656 42.870 C 202.234 41.561, 202.435 38.387, 200.996 37.498 C 200.444 37.157, 200.278 35.739, 200.627 34.348 L 201.262 31.819 199.264 33.067 C 196.201 34.980, 194 33.586, 194 29.731 C 194 26.400, 192.528 23.969, 190.550 24.035 C 189.972 24.054, 187.363 25.901, 184.750 28.139 M 269.200 25.200 C 268.540 25.860, 268 28.094, 268 30.165 C 268 35.045, 270.878 36.966, 274.567 34.548 C 275.905 33.671, 277.056 32.289, 277.125 31.477 C 277.194 30.665, 277.336 29.438, 277.441 28.750 C 278.056 24.734, 272.192 22.208, 269.200 25.200 M 200.769 27.956 C 200.078 30.417, 200.491 31.842, 201.581 30.753 C 201.900 30.433, 202.004 29.121, 201.810 27.836 L 201.459 25.500 200.769 27.956 M 156.597 27.844 C 156.251 28.404, 156.455 29.163, 157.050 29.531 C 158.588 30.481, 159.580 29.180, 158.296 27.896 C 157.578 27.178, 157.019 27.161, 156.597 27.844 M 135 32.500 C 135 32.775, 135.225 33, 135.500 33 C 135.775 33, 136 32.775, 136 32.500 C 136 32.225, 135.775 32, 135.500 32 C 135.225 32, 135 32.225, 135 32.500 M 161 32.500 C 161 32.775, 161.225 33, 161.500 33 C 161.775 33, 162 32.775, 162 32.500 C 162 32.225, 161.775 32, 161.500 32 C 161.225 32, 161 32.225, 161 32.500 M 67.049 44.075 C 62.864 44.990, 61 47.312, 61 51.609 C 61 56.764, 61.875 58, 65.524 58 C 67.344 58, 68.995 58.486, 69.193 59.080 C 69.442 59.827, 70.416 59.768, 72.348 58.887 C 74.337 57.981, 75.339 57.929, 75.822 58.707 C 76.433 59.692, 80.378 60.383, 83.817 60.106 C 87.240 59.831, 81.053 50, 77.458 50 C 75.807 50, 74.575 49.078, 73.533 47.063 C 71.605 43.336, 71.226 43.162, 67.049 44.075 M 218.821 48.828 C 212.527 51.077, 211.889 51.992, 216.583 52.039 L 220.500 52.078 217.398 53.429 C 215.692 54.171, 213.215 54.573, 211.893 54.320 C 209.951 53.949, 209.275 54.433, 208.363 56.850 C 207.634 58.781, 205.745 60.600, 203.028 61.986 L 198.823 64.131 199.161 69.567 C 199.348 72.557, 199.430 75.002, 199.344 75.001 C 199.258 75.001, 196.853 72.750, 193.999 69.999 C 191.146 67.249, 188.404 65.251, 187.906 65.558 C 186.706 66.300, 186.738 72.720, 187.945 73.466 C 188.465 73.787, 190.807 78.063, 193.149 82.968 C 197.628 92.348, 199.872 94.209, 204.021 91.989 C 206.258 90.792, 206.564 88.964, 204.820 87.220 C 203.913 86.313, 205.008 84.756, 209.548 80.497 C 216.283 74.179, 218.427 73.404, 234.143 71.612 C 240.131 70.929, 245.518 69.882, 246.117 69.283 C 248.209 67.191, 251.022 56.909, 250.016 55.030 C 248.530 52.254, 242.700 50.004, 236.331 49.751 C 233.124 49.623, 229.905 48.952, 229.179 48.259 C 227.453 46.615, 224.569 46.773, 218.821 48.828 M 77 51.500 C 77 51.775, 77.225 52, 77.500 52 C 77.775 52, 78 51.775, 78 51.500 C 78 51.225, 77.775 51, 77.500 51 C 77.225 51, 77 51.225, 77 51.500 M 76 54.500 C 76 54.775, 76.225 55, 76.500 55 C 76.775 55, 77 54.775, 77 54.500 C 77 54.225, 76.775 54, 76.500 54 C 76.225 54, 76 54.225, 76 54.500 M 132.500 57.872 C 127.471 60.997, 121 67.800, 121 69.960 C 121 71.082, 120.550 72, 120 72 C 118.291 72, 118.900 76.051, 121.068 79.096 C 123.612 82.669, 125.868 82.740, 132.895 79.469 C 135.863 78.088, 138.504 77.171, 138.765 77.432 C 139.632 78.299, 137.969 84.780, 136.586 85.929 C 134.750 87.452, 136.195 93.861, 138.845 95.950 C 140.152 96.981, 141.047 99.340, 141.520 103 C 142.444 110.159, 143.340 111.698, 147.626 113.488 C 152.977 115.724, 159.995 114.888, 162.349 111.734 C 164.074 109.423, 164.130 108.710, 162.970 103.847 C 161.591 98.069, 160.219 96.654, 153.011 93.571 C 150.530 92.510, 148.361 91.546, 148.190 91.428 C 148.020 91.311, 149.138 88.963, 150.674 86.212 L 153.467 81.210 158.292 80.746 C 164.011 80.196, 165.913 78.805, 164.035 76.542 C 163.109 75.426, 160.854 75, 155.873 75 L 148.990 75 143.980 69.883 C 140.497 66.326, 138.634 63.431, 137.866 60.383 C 137.259 57.973, 136.478 56.002, 136.131 56.004 C 135.784 56.006, 134.150 56.847, 132.500 57.872 M 77 57.500 C 77 57.775, 77.225 58, 77.500 58 C 77.775 58, 78 57.775, 78 57.500 C 78 57.225, 77.775 57, 77.500 57 C 77.225 57, 77 57.225, 77 57.500 M 7.904 63.616 C 5.916 66.012, 4.136 71.805, 4.712 74.007 C 4.989 75.067, 6.068 76.204, 7.109 76.535 C 8.150 76.865, 9.467 78.005, 10.036 79.068 C 11.457 81.722, 14.266 81.488, 17.923 78.411 C 23.600 73.635, 21.538 65.077, 14.221 63.044 C 9.438 61.716, 9.484 61.712, 7.904 63.616 M 206.030 65.958 C 202.856 70.415, 203.890 72, 209.969 72 C 216.042 72, 216.395 70.744, 211.623 66.119 L 208.246 62.846 206.030 65.958 M 257.494 67.850 C 253.078 69.281, 243.775 75.383, 239.518 79.640 C 235.562 83.596, 235.148 84.408, 236.140 86.261 C 238.726 91.094, 243.749 96, 246.111 96 C 248.920 96, 250.167 99.300, 249.120 103.963 C 247.909 109.352, 249.289 114.977, 252.503 117.750 C 253.938 118.987, 255.488 120, 255.948 120 C 256.408 120, 257.611 117.239, 258.622 113.865 C 259.632 110.491, 261.256 107.233, 262.230 106.624 C 263.551 105.799, 264 104.213, 264 100.366 C 264 94.298, 264.445 94, 273.514 94 L 279.864 94 281.995 91.007 C 283.167 89.361, 283.874 87.606, 283.566 87.107 C 283.258 86.609, 280.642 85.647, 277.753 84.970 C 271.025 83.392, 270 82.512, 270 78.312 C 270 74.711, 268.962 72.147, 266.200 68.921 C 264.563 67.009, 261.318 66.610, 257.494 67.850 M 6 70.500 C 6 70.775, 6.225 71, 6.500 71 C 6.775 71, 7 70.775, 7 70.500 C 7 70.225, 6.775 70, 6.500 70 C 6.225 70, 6 70.225, 6 70.500 M 318.344 74.996 C 317.083 75.505, 315.909 77.139, 315.515 78.933 L 314.841 82 310.456 82 C 304.853 82, 303.428 84.108, 305.265 89.679 L 306.525 93.500 314.219 93.500 L 321.913 93.500 321.531 95.500 C 321.321 96.600, 321.115 97.838, 321.074 98.250 C 321.033 98.662, 320.355 99, 319.567 99 C 318.779 99, 317.822 99.985, 317.440 101.188 C 316.931 102.791, 317.344 103.860, 318.984 105.188 C 320.215 106.185, 321.847 107, 322.611 107 C 324.820 107, 324.232 108.683, 321.250 110.894 C 314.691 115.758, 313.798 116.695, 312.331 120.250 C 311.479 122.313, 310.611 124, 310.400 124 C 310.190 124, 306.577 122.812, 302.371 121.359 L 294.725 118.719 289.366 121.609 C 286.419 123.199, 284.005 124.804, 284.003 125.175 C 284.002 125.546, 287.085 131.846, 290.856 139.175 L 297.712 152.500 294.905 158.500 C 293.159 162.232, 292.080 166.238, 292.049 169.098 L 292 173.696 295.750 175.344 C 297.813 176.251, 303.775 178.482, 309 180.303 L 318.500 183.613 326.678 198.056 C 331.176 206, 335.497 213.400, 336.280 214.500 C 337.063 215.600, 341.882 223.700, 346.989 232.500 C 352.096 241.300, 360.101 255.025, 364.778 263 C 369.454 270.975, 375.446 281.195, 378.091 285.710 C 380.737 290.226, 385.198 298.326, 388.005 303.710 C 390.812 309.095, 393.548 313.941, 394.084 314.479 C 394.719 315.118, 395.907 314.421, 397.494 312.479 C 398.833 310.841, 399.944 309.155, 399.964 308.733 C 399.984 308.311, 401.960 304.711, 404.356 300.733 C 408.239 294.286, 422.313 269.985, 437.793 243 C 440.790 237.775, 444.589 231.025, 446.235 228 C 447.882 224.975, 455.771 211.250, 463.766 197.500 C 471.762 183.750, 479.179 170.925, 480.248 169 C 481.318 167.075, 483.570 163.025, 485.253 160 C 486.936 156.975, 490.637 150.675, 493.478 146 C 496.318 141.325, 500.583 133.960, 502.956 129.633 L 507.269 121.766 460.261 122.151 L 413.253 122.537 414.817 119.258 C 416.057 116.657, 416.125 115.724, 415.145 114.740 C 412.433 112.016, 373.063 108.084, 366.500 109.880 C 361.309 111.302, 356.515 114.284, 354.515 117.337 L 352.921 119.769 355.383 125.150 C 356.737 128.110, 358.153 131.762, 358.531 133.266 C 359.138 135.687, 358.937 136, 356.769 136 C 354.204 136, 352 132.742, 352 128.953 C 352 127.879, 351.632 127, 351.183 127 C 350.733 127, 349.574 124.490, 348.607 121.422 C 347.640 118.354, 344.608 110.878, 341.870 104.809 C 339.132 98.740, 337.028 93.657, 337.196 93.512 C 338.386 92.481, 341.949 92.109, 342.475 92.959 C 342.829 93.532, 343.541 94, 344.059 94 C 345.279 94, 345.287 91.269, 344.068 90.833 C 343.556 90.650, 342.941 88.513, 342.702 86.084 C 342.249 81.487, 340.169 79, 336.776 79 C 335.762 79, 332.713 77.875, 330 76.500 C 324.863 73.897, 321.989 73.526, 318.344 74.996 M 223.500 82.970 C 221.226 83.424, 220.576 84.044, 220.814 85.534 C 221.489 89.765, 220.992 91.415, 218.144 94.400 L 215.186 97.500 216.651 99.654 C 218.280 102.049, 219.082 107.425, 219.183 116.626 L 219.250 122.752 226.125 122.893 C 232.964 123.034, 234.308 122.331, 231.560 120.050 C 230.768 119.393, 229.980 117.875, 229.810 116.677 C 229.516 114.619, 228.431 114.266, 225.059 115.131 C 222.937 115.675, 222.609 112.442, 223.985 104.522 C 225.459 96.029, 226.610 92.755, 229.154 89.823 C 232.958 85.436, 229.873 81.697, 223.500 82.970 M 163.865 89.750 C 163.774 90.987, 163.655 92.525, 163.600 93.167 C 163.545 93.808, 164.063 94.521, 164.750 94.750 C 166.247 95.249, 166.423 91.202, 165 89 C 164.209 87.776, 164 87.914, 163.865 89.750 M 322 91.059 C 322 91.641, 322.450 91.840, 323 91.500 C 323.550 91.160, 324 90.684, 324 90.441 C 324 90.198, 323.550 90, 323 90 C 322.450 90, 322 90.477, 322 91.059 M 327.173 91.291 C 326.378 92.250, 326.603 92.896, 328.051 93.800 C 329.123 94.469, 330 94.590, 330 94.067 C 330 93.545, 329.502 92.810, 328.893 92.434 C 328.122 91.957, 328.197 91.490, 329.143 90.890 C 329.944 90.383, 330.038 90.024, 329.372 90.015 C 328.752 90.007, 327.763 90.581, 327.173 91.291 M 326 95 C 326 95.550, 326.477 96, 327.059 96 C 327.641 96, 327.840 95.550, 327.500 95 C 327.160 94.450, 326.684 94, 326.441 94 C 326.198 94, 326 94.450, 326 95 M 255.500 96 C 255.840 96.550, 256.316 97, 256.559 97 C 256.802 97, 257 96.550, 257 96 C 257 95.450, 256.523 95, 255.941 95 C 255.359 95, 255.160 95.450, 255.500 96 M 187.184 99.886 C 185.664 102.591, 185 105.468, 185 109.351 C 185 114.183, 185.422 115.411, 188.148 118.516 C 192.825 123.843, 195.802 125, 204.828 125 C 215.005 125, 215.499 124.466, 214.592 114.448 C 214.217 110.313, 213.686 106.344, 213.411 105.629 C 212.674 103.707, 206.027 100.708, 201.912 100.440 C 199.939 100.311, 196.470 99.260, 194.202 98.103 C 191.935 96.946, 189.920 96, 189.724 96 C 189.528 96, 188.385 97.749, 187.184 99.886 M 200 98.500 C 200 98.775, 200.225 99, 200.500 99 C 200.775 99, 201 98.775, 201 98.500 C 201 98.225, 200.775 98, 200.500 98 C 200.225 98, 200 98.225, 200 98.500 M 261 99.500 C 261 99.775, 261.225 100, 261.500 100 C 261.775 100, 262 99.775, 262 99.500 C 262 99.225, 261.775 99, 261.500 99 C 261.225 99, 261 99.225, 261 99.500 M 126.742 114.228 C 121.047 115.414, 120.176 117.397, 122.003 125.012 C 122.938 128.912, 123.860 130.393, 126.057 131.530 C 131.622 134.407, 133.706 133.384, 139.320 125.013 C 144.564 117.195, 143.942 113.648, 137.509 114.692 C 135.638 114.996, 133.963 114.749, 133.568 114.110 C 133.191 113.500, 132.571 113.053, 132.191 113.118 C 131.811 113.183, 129.359 113.683, 126.742 114.228 M 235.978 118.557 C 235.409 120.053, 235.143 121.476, 235.386 121.720 C 236.355 122.688, 240.101 119.763, 239.810 118.265 C 239.281 115.535, 237.063 115.704, 235.978 118.557 M 579.222 121.988 L 521.944 122.500 518.457 128.500 C 516.539 131.800, 514.081 136.353, 512.996 138.618 C 511.911 140.883, 510.343 143.300, 509.512 143.990 C 508.680 144.680, 508 145.653, 508 146.151 C 508 148.877, 492.177 178.431, 475.957 206 C 468.975 217.867, 468.806 215.774, 478.054 232.059 C 482.565 240.001, 490.751 254.150, 496.246 263.500 C 519.635 303.297, 524.594 310.722, 530.262 314.436 L 532.898 316.163 537.556 306.832 C 540.119 301.699, 543.324 296.026, 544.679 294.224 C 547.351 290.669, 556.161 276.470, 567.464 257.500 C 575.664 243.738, 576.962 241.592, 590.357 219.648 C 595.778 210.767, 601.644 200.800, 603.392 197.500 C 605.140 194.200, 607.280 190.375, 608.147 189 C 609.015 187.625, 611.698 183.387, 614.110 179.582 C 616.525 175.772, 618.364 171.730, 618.203 170.582 C 617.965 168.888, 618.099 168.779, 618.925 170 C 619.738 171.202, 620.070 170.856, 620.592 168.264 C 620.951 166.485, 622.314 163.874, 623.622 162.463 C 624.930 161.052, 626 159.470, 626 158.948 C 626 158.427, 626.351 158, 626.781 158 C 627.601 158, 630.355 152.040, 630.130 150.750 C 630.059 150.338, 630.378 150, 630.841 150 C 631.304 150, 632.898 147.863, 634.385 145.250 C 635.871 142.637, 639.297 136.900, 641.999 132.500 C 648.505 121.904, 648.483 120.933, 641.750 121.238 C 638.862 121.368, 610.725 121.706, 579.222 121.988 M 459.344 237.257 C 454.341 244.782, 441.706 266.477, 420.182 304.500 C 415.512 312.750, 410.887 320.850, 409.904 322.500 C 408.922 324.150, 406.009 329.325, 403.432 334 C 400.854 338.675, 395.255 348.350, 390.989 355.500 C 386.723 362.650, 377.137 378.850, 369.687 391.500 C 362.236 404.150, 353.615 418.456, 350.530 423.291 C 345.355 431.399, 342.539 436.891, 343.222 437.542 C 343.779 438.073, 575.941 438.828, 577.940 438.305 C 579.073 438.009, 580 437.153, 580 436.404 C 580 435.259, 571.830 420.988, 557.729 397.500 C 556.078 394.750, 553.836 390.925, 552.746 389 C 549.315 382.938, 523.875 340.731, 520.500 335.500 C 518.725 332.750, 515.379 326.900, 513.065 322.500 C 510.750 318.100, 505.739 309.376, 501.928 303.114 C 498.118 296.852, 495 291.599, 495 291.440 C 495 291.282, 490.432 283.356, 484.849 273.826 C 467.263 243.811, 463 236.257, 463 235.112 C 463 233.101, 461.536 233.960, 459.344 237.257 M 517 257.822 C 517 258.205, 517.918 259.092, 519.041 259.793 C 521.474 261.313, 523.517 260.469, 521.815 258.647 C 520.552 257.295, 517 256.686, 517 257.822 M 521.954 264.086 C 520.320 267.140, 521.448 267.491, 523.388 264.531 C 524.300 263.139, 524.602 262, 524.058 262 C 523.515 262, 522.568 262.939, 521.954 264.086 M 520 268.500 C 520 268.775, 520.225 269, 520.500 269 C 520.775 269, 521 268.775, 521 268.500 C 521 268.225, 520.775 268, 520.500 268 C 520.225 268, 520 268.225, 520 268.500"
          stroke="none" fill="#e3e3e2" fill-rule="evenodd"/>
</svg>