<svg version="1.1" xmlns="http://www.w3.org/2000/svg" xmlns:xlink="http://www.w3.org/1999/xlink" width="70px" height="40px" viewBox="0,0,256,146.28125"><g transform="translate(7.31429,4.17946) scale(0.94286,0.94286)"><g fill="#afa9a9" fill-rule="nonzero" stroke="none" stroke-width="1" stroke-linecap="butt" stroke-linejoin="miter" stroke-miterlimit="10" stroke-dasharray="" stroke-dashoffset="0" font-family="none" font-weight="none" font-size="none" text-anchor="none" style="mix-blend-mode: normal"><path d="M-7.75758,150.71402v-155.14678h271.51515v155.14678z" id="bgRectangle"></path></g><g fill="#5c7cfa" fill-rule="nonzero" stroke="none" stroke-width="1" stroke-linecap="butt" stroke-linejoin="miter" stroke-miterlimit="10" stroke-dasharray="" stroke-dashoffset="0" font-family="none" font-weight="none" font-size="none" text-anchor="none" style="mix-blend-mode: normal"><path d="M60.12121,150.71402c-37.48842,0 -67.87879,-30.39037 -67.87879,-67.87879v-19.3892c0,-37.48842 30.39037,-67.87879 67.87879,-67.87879h135.75758c37.48842,0 67.87879,30.39037 67.87879,67.87879v19.3892c0,37.48842 -30.39037,67.87879 -67.87879,67.87879z" id="shape"></path></g><g fill="#b0aeae" fill-rule="nonzero" stroke="#dddddd" stroke-width="5" stroke-linecap="butt" stroke-linejoin="round" stroke-miterlimit="10" stroke-dasharray="" stroke-dashoffset="0" font-family="none" font-weight="none" font-size="none" text-anchor="none" style="mix-blend-mode: normal"><path transform="translate(-0.15714,-0.00223) scale(3.65714,3.65714)" d="M0,0h70.08594l-0.02344,19.98047l-0.01953,19.97656l-35.02344,0.02344l-35.01953,0.01953z" id="strokeMainSVG"></path></g><g fill="none" fill-rule="evenodd" stroke="none" stroke-width="1" stroke-linecap="butt" stroke-linejoin="miter" stroke-miterlimit="10" stroke-dasharray="" stroke-dashoffset="0" font-family="none" font-weight="none" font-size="none" text-anchor="none" style="mix-blend-mode: normal"><g transform="translate(-0.15714,-0.00223) scale(3.65714,3.65714)"><g id="surface1"><path d="M9.79297,1.44141c-0.11719,0.12891 -0.12891,0.20313 -0.05859,0.33594c0.07031,0.12891 0.0625,0.17969 -0.03125,0.21484c-0.07031,0.02734 -0.14844,0.01172 -0.17578,-0.03516c-0.02734,-0.04297 -0.09766,-0.07812 -0.15234,-0.07812c-0.125,0.00391 -0.65625,0.69531 -0.65625,0.85938c0,0.06641 -0.09766,0.30078 -0.21484,0.51953c-0.23828,0.45313 -0.26172,0.60547 -0.10547,0.73438c0.08203,0.06641 0.32422,-0.05469 0.94531,-0.46875c0.68359,-0.45313 0.9375,-0.57031 1.375,-0.64844c0.49219,-0.08203 0.56641,-0.07422 0.84375,0.08984c0.22656,0.12891 0.31641,0.14844 0.34766,0.07031c0.05859,-0.16016 -0.35547,-0.64844 -0.50391,-0.58984c-0.08984,0.03125 -0.10937,0.00781 -0.07422,-0.08984c0.03125,-0.07422 0.01172,-0.13672 -0.03906,-0.13672c-0.05469,0 -0.09766,-0.04297 -0.09766,-0.09375c0,-0.17969 -0.44922,-0.67578 -0.61328,-0.67578c-0.08984,0 -0.14062,0.03906 -0.11328,0.08594c0.03125,0.05078 -0.05859,0.08594 -0.21875,0.08594c-0.22656,0 -0.26172,-0.02734 -0.22656,-0.17187c0.05859,-0.21484 -0.03906,-0.21875 -0.23047,-0.00781M9.42969,1.76172c0.03125,0.03125 0.08203,0.03125 0.11328,0c0.03125,-0.03125 0.00781,-0.05469 -0.05469,-0.05469c-0.0625,0 -0.08984,0.02344 -0.05859,0.05469M13.45703,1.875c-0.50781,0.07422 -0.68359,0.16016 -1.05078,0.5c-0.32812,0.30859 -0.33594,0.35547 -0.03516,0.35547c0.3125,0 0.46875,0.10938 0.40234,0.27734c-0.06641,0.17188 -0.62109,0.50781 -0.73047,0.44141c-0.04297,-0.02734 -0.07812,-0.01172 -0.07812,0.03516c0,0.04297 0.08984,0.10156 0.19922,0.12891c0.10938,0.02734 0.44141,0.28125 0.73438,0.5625c0.58594,0.56641 0.78906,0.65625 1.16406,0.51563l0.25391,-0.09766l-0.40625,-0.38281c-0.52344,-0.49219 -0.52734,-0.62891 -0.01953,-0.62891c0.46875,0 0.55859,-0.14453 0.30469,-0.5c-0.28125,-0.39844 -0.26562,-0.42187 0.35547,-0.55859c0.12891,-0.03125 0.23438,-0.10938 0.23438,-0.17969c0,-0.06641 -0.10547,-0.14844 -0.23437,-0.17969c-0.12891,-0.03125 -0.30469,-0.12891 -0.38672,-0.21484c-0.08594,-0.08594 -0.17969,-0.15234 -0.21484,-0.14844c-0.03125,0.00781 -0.25391,0.03906 -0.49219,0.07422M15.78906,2.39844c-0.22266,0.19141 -0.40625,0.41016 -0.40625,0.48828c0,0.3125 1.51953,0.97266 1.76563,0.76953c0.13672,-0.11328 0.15234,-0.38281 0.03125,-0.45703c-0.04688,-0.03125 -0.0625,-0.15234 -0.03125,-0.26953l0.05469,-0.21484l-0.17187,0.10547c-0.26172,0.16406 -0.44922,0.04297 -0.44922,-0.28516c0,-0.28516 -0.125,-0.49219 -0.29687,-0.48437c-0.04687,0 -0.26953,0.16016 -0.49609,0.34766M23.00781,2.14844c-0.05469,0.05859 -0.10156,0.24609 -0.10156,0.42578c0,0.41406 0.24609,0.57813 0.5625,0.37109c0.11328,-0.07422 0.21094,-0.19141 0.21875,-0.26172c0.00391,-0.06641 0.01563,-0.17187 0.02734,-0.23047c0.05078,-0.34375 -0.44922,-0.55859 -0.70703,-0.30469M17.16016,2.38281c-0.05859,0.21094 -0.02344,0.33203 0.07031,0.23828c0.02734,-0.02734 0.03516,-0.13672 0.01953,-0.24609l-0.03125,-0.19922l-0.05859,0.20703M13.38281,2.375c-0.02734,0.04688 -0.01172,0.11328 0.03906,0.14453c0.13281,0.08203 0.21875,-0.03125 0.10938,-0.14062c-0.0625,-0.0625 -0.10937,-0.0625 -0.14844,-0.00391M11.53906,2.77344c0,0.02344 0.01953,0.04297 0.04297,0.04297c0.02344,0 0.04297,-0.01953 0.04297,-0.04297c0,-0.02344 -0.01953,-0.04297 -0.04297,-0.04297c-0.02344,0 -0.04297,0.01953 -0.04297,0.04297M13.76172,2.77344c0,0.02344 0.01953,0.04297 0.04297,0.04297c0.02344,0 0.04297,-0.01953 0.04297,-0.04297c0,-0.02344 -0.01953,-0.04297 -0.04297,-0.04297c-0.02344,0 -0.04297,0.01953 -0.04297,0.04297M5.73047,3.75781c-0.35937,0.07813 -0.51562,0.27734 -0.51562,0.64453c0,0.4375 0.07422,0.54297 0.38672,0.54297c0.15625,0 0.29688,0.04297 0.3125,0.09375c0.01953,0.0625 0.10547,0.05859 0.26953,-0.01562c0.17188,-0.07813 0.25391,-0.08203 0.29688,-0.01563c0.05078,0.08203 0.39063,0.14063 0.68359,0.11719c0.29297,-0.02344 -0.23828,-0.85937 -0.54297,-0.85937c-0.14062,0 -0.24609,-0.07812 -0.33594,-0.25c-0.16406,-0.32031 -0.19922,-0.33594 -0.55469,-0.25781M18.70313,4.16406c-0.53906,0.19141 -0.59375,0.26953 -0.19141,0.27344l0.33594,0.00391l-0.26562,0.11719c-0.14844,0.0625 -0.35937,0.09766 -0.47266,0.07422c-0.16406,-0.03125 -0.22266,0.00781 -0.30078,0.21484c-0.0625,0.16406 -0.22266,0.32031 -0.45703,0.4375l-0.35937,0.18359l0.03125,0.46484c0.01562,0.25391 0.02344,0.46484 0.01562,0.46484c-0.00781,0 -0.21484,-0.19531 -0.45703,-0.42969c-0.24609,-0.23437 -0.48047,-0.40234 -0.52344,-0.37891c-0.10156,0.06641 -0.09766,0.61328 0.00391,0.67578c0.04688,0.02734 0.24609,0.39063 0.44531,0.80859c0.38281,0.80078 0.57422,0.96094 0.92969,0.76953c0.19141,-0.10156 0.21875,-0.25781 0.07031,-0.40625c-0.07812,-0.07422 0.01563,-0.20703 0.40234,-0.57031c0.57422,-0.53906 0.75781,-0.60547 2.10156,-0.75781c0.51172,-0.05859 0.97266,-0.14844 1.02344,-0.19922c0.17969,-0.17969 0.41797,-1.05469 0.33203,-1.21484c-0.125,-0.23828 -0.625,-0.42969 -1.16797,-0.45312c-0.27344,-0.01172 -0.55078,-0.06641 -0.60937,-0.125c-0.14844,-0.14063 -0.39453,-0.12891 -0.88672,0.04687M6.58203,4.39063c0,0.02344 0.01953,0.04297 0.04297,0.04297c0.02344,0 0.04297,-0.01953 0.04297,-0.04297c0,-0.02344 -0.01953,-0.03906 -0.04297,-0.03906c-0.02344,0 -0.04297,0.01563 -0.04297,0.03906M6.49609,4.64844c0,0.02344 0.01953,0.04297 0.04297,0.04297c0.02344,0 0.04297,-0.01953 0.04297,-0.04297c0,-0.02344 -0.01953,-0.04297 -0.04297,-0.04297c-0.02344,0 -0.04297,0.01953 -0.04297,0.04297M11.32422,4.9375c-0.42969,0.26563 -0.98047,0.84375 -0.98047,1.02734c0,0.09766 -0.03906,0.17578 -0.08594,0.17578c-0.14844,0 -0.09375,0.34375 0.08984,0.60547c0.21875,0.30469 0.41016,0.3125 1.01172,0.03125c0.25391,-0.11719 0.48047,-0.19531 0.5,-0.17187c0.07422,0.07422 -0.06641,0.625 -0.18359,0.72266c-0.16016,0.12891 -0.03516,0.67578 0.19141,0.85547c0.11328,0.08594 0.1875,0.28906 0.23047,0.60156c0.07813,0.60938 0.15234,0.74219 0.51953,0.89453c0.45703,0.19141 1.05859,0.11719 1.25781,-0.14844c0.14844,-0.19922 0.15234,-0.25781 0.05469,-0.67578c-0.11719,-0.49219 -0.23438,-0.61328 -0.85156,-0.875c-0.21094,-0.08984 -0.39844,-0.17187 -0.41406,-0.18359c-0.01172,-0.00781 0.08203,-0.21094 0.21484,-0.44531l0.23828,-0.42578l0.41016,-0.03906c0.49219,-0.04687 0.65234,-0.16406 0.49219,-0.35937c-0.07812,-0.09375 -0.26953,-0.12891 -0.69531,-0.12891h-0.58984l-0.42969,-0.4375c-0.29688,-0.30469 -0.45703,-0.55078 -0.51953,-0.8125c-0.05469,-0.20313 -0.12109,-0.37109 -0.14844,-0.37109c-0.03125,0 -0.17187,0.07031 -0.3125,0.16016M6.58203,4.90234c0,0.02344 0.01953,0.04297 0.04297,0.04297c0.02344,0 0.04297,-0.01953 0.04297,-0.04297c0,-0.02344 -0.01953,-0.03906 -0.04297,-0.03906c-0.02344,0 -0.04297,0.01563 -0.04297,0.03906M0.67578,5.42578c-0.17187,0.20313 -0.32422,0.69922 -0.27344,0.88672c0.02344,0.08984 0.11719,0.1875 0.20703,0.21484c0.08594,0.02734 0.19922,0.125 0.25,0.21484c0.12109,0.22656 0.35938,0.20703 0.67188,-0.05469c0.48438,-0.40625 0.30859,-1.13672 -0.31641,-1.3125c-0.40625,-0.11328 -0.40234,-0.11328 -0.53906,0.05078M17.60938,5.625c-0.26953,0.37891 -0.18359,0.51563 0.33594,0.51563c0.51953,0 0.55078,-0.10547 0.14063,-0.5l-0.28906,-0.28125l-0.1875,0.26563M22.00781,5.78516c-0.37891,0.125 -1.17187,0.64453 -1.53516,1.00781c-0.33984,0.33594 -0.375,0.40625 -0.28906,0.5625c0.21875,0.41406 0.64844,0.83203 0.85156,0.83203c0.23828,0 0.34766,0.28125 0.25781,0.67969c-0.10547,0.46094 0.01563,0.9375 0.28906,1.17578c0.12109,0.10547 0.25391,0.19141 0.29297,0.19141c0.03906,0 0.14453,-0.23437 0.23047,-0.52344c0.08594,-0.28906 0.22266,-0.56641 0.30859,-0.61719c0.11328,-0.07031 0.14844,-0.20703 0.14844,-0.53516c0,-0.51562 0.03906,-0.54297 0.81641,-0.54297h0.54297l0.17969,-0.25391c0.10156,-0.14062 0.16016,-0.28906 0.13672,-0.33203c-0.02734,-0.04297 -0.25,-0.125 -0.5,-0.18359c-0.57422,-0.13281 -0.66016,-0.20703 -0.66016,-0.56641c0,-0.30859 -0.08984,-0.52734 -0.32422,-0.80078c-0.14062,-0.16406 -0.41797,-0.19922 -0.74609,-0.09375M0.51172,6.01172c0,0.02344 0.01953,0.04297 0.04297,0.04297c0.02344,0 0.04297,-0.01953 0.04297,-0.04297c0,-0.02344 -0.01953,-0.04297 -0.04297,-0.04297c-0.02344,0 -0.04297,0.01953 -0.04297,0.04297M27.20703,6.39453c-0.10547,0.04688 -0.20703,0.18359 -0.23828,0.33594l-0.05859,0.26172h-0.375c-0.48047,0 -0.60156,0.17969 -0.44531,0.65625l0.10938,0.32422h1.31641l-0.03516,0.17188c-0.01562,0.09375 -0.03516,0.19922 -0.03906,0.23438c-0.00391,0.03516 -0.0625,0.06641 -0.12891,0.06641c-0.06641,0 -0.14844,0.08203 -0.17969,0.18359c-0.04297,0.13672 -0.00781,0.23047 0.12891,0.34375c0.10547,0.08203 0.24609,0.15234 0.3125,0.15234c0.1875,0 0.13672,0.14453 -0.11719,0.33203c-0.55859,0.41406 -0.63672,0.49609 -0.76172,0.80078c-0.07422,0.17578 -0.14844,0.31641 -0.16406,0.31641c-0.01953,0 -0.32812,-0.10156 -0.6875,-0.22266l-0.65234,-0.22656l-0.46094,0.24609c-0.25,0.13672 -0.45703,0.27344 -0.45703,0.30469c0,0.03125 0.26562,0.57031 0.58594,1.19531l0.58594,1.13672l-0.23828,0.51172c-0.15234,0.31641 -0.24219,0.66016 -0.24609,0.90234l-0.00391,0.39063l0.32031,0.14063c0.17578,0.07813 0.6875,0.26953 1.13281,0.42578l0.8125,0.28125l0.69922,1.23047c0.38281,0.67969 0.75391,1.30859 0.82031,1.40234c0.06641,0.09375 0.47656,0.78516 0.91406,1.53516c0.4375,0.75 1.12109,1.92188 1.51953,2.60156c0.40234,0.67969 0.91406,1.55469 1.14063,1.9375c0.22656,0.38672 0.60547,1.07812 0.84766,1.53516c0.23828,0.46094 0.47266,0.87109 0.51953,0.91797c0.05469,0.05469 0.15625,-0.00391 0.28906,-0.16797c0.11719,-0.14062 0.21094,-0.28516 0.21094,-0.32031c0.00391,-0.03516 0.17188,-0.34375 0.375,-0.68359c0.33203,-0.55078 1.53516,-2.62109 2.85938,-4.92188c0.25781,-0.44531 0.58203,-1.02344 0.72266,-1.28125c0.14063,-0.25781 0.8125,-1.42969 1.49609,-2.60156c0.68359,-1.17187 1.32031,-2.26562 1.41016,-2.42969c0.08984,-0.16406 0.28516,-0.51172 0.42969,-0.76953c0.14063,-0.25781 0.45703,-0.79297 0.69922,-1.19141c0.24609,-0.39844 0.60938,-1.02734 0.8125,-1.39844l0.36719,-0.66797l-4.01562,0.03125l-4.01953,0.03125l0.13281,-0.27734c0.10547,-0.22266 0.11328,-0.30078 0.03125,-0.38672c-0.23437,-0.23047 -3.59766,-0.56641 -4.16016,-0.41406c-0.44141,0.12109 -0.85156,0.375 -1.02344,0.63672l-0.13672,0.20703l0.21094,0.45703c0.11719,0.25391 0.23828,0.56641 0.26953,0.69531c0.05078,0.20703 0.03516,0.23047 -0.15234,0.23047c-0.21875,0 -0.40625,-0.27734 -0.40625,-0.59766c0,-0.09375 -0.03125,-0.16797 -0.07031,-0.16797c-0.03906,0 -0.13672,-0.21484 -0.21875,-0.47656c-0.08594,-0.26172 -0.34375,-0.89844 -0.57812,-1.41797c-0.23437,-0.51562 -0.41406,-0.94922 -0.39844,-0.96094c0.10156,-0.08984 0.40625,-0.12109 0.44922,-0.04687c0.03125,0.04687 0.09375,0.08594 0.13672,0.08594c0.10547,0 0.10547,-0.23047 0,-0.26953c-0.04297,-0.01562 -0.09375,-0.19531 -0.11719,-0.40234c-0.03516,-0.39453 -0.21484,-0.60547 -0.50391,-0.60547c-0.08594,0 -0.34766,-0.09766 -0.57812,-0.21484c-0.44141,-0.22266 -0.6875,-0.25391 -1,-0.12891M19.10156,7.07813c-0.19141,0.03516 -0.25,0.08984 -0.23047,0.21875c0.05859,0.35938 0.01563,0.5 -0.22656,0.75391l-0.25391,0.26563l0.125,0.18359c0.14063,0.20313 0.21094,0.66016 0.21875,1.44531l0.00391,0.52344l0.58984,0.01172c0.58203,0.01172 0.69922,-0.04687 0.46484,-0.24219c-0.07031,-0.05469 -0.13672,-0.18359 -0.15234,-0.28906c-0.02344,-0.17187 -0.11719,-0.20312 -0.40625,-0.12891c-0.17969,0.04688 -0.20703,-0.23047 -0.08984,-0.90625c0.125,-0.72266 0.22266,-1.00391 0.44141,-1.25391c0.32422,-0.375 0.0625,-0.69141 -0.48438,-0.58203M14.00391,7.65625c-0.00781,0.10547 -0.01562,0.23438 -0.01953,0.28906c-0.00781,0.05469 0.03906,0.11719 0.09766,0.13672c0.12891,0.04297 0.14063,-0.30469 0.01953,-0.49219c-0.06641,-0.10547 -0.08594,-0.09375 -0.09766,0.06641M27.51953,7.76563c0,0.05078 0.03906,0.06641 0.08594,0.03906c0.04688,-0.03125 0.08594,-0.07031 0.08594,-0.08984c0,-0.02344 -0.03906,-0.03906 -0.08594,-0.03906c-0.04687,0 -0.08594,0.03906 -0.08594,0.08984M27.96484,7.78516c-0.07031,0.08203 -0.05078,0.13672 0.07422,0.21484c0.08984,0.05859 0.16797,0.06641 0.16797,0.02344c0,-0.04688 -0.04297,-0.10938 -0.09766,-0.14063c-0.06641,-0.03906 -0.05859,-0.07812 0.02344,-0.13281c0.06641,-0.04297 0.07422,-0.07031 0.01953,-0.07422c-0.05469,0 -0.13672,0.05078 -0.1875,0.10938M27.86328,8.10156c0,0.04688 0.03906,0.08594 0.08984,0.08594c0.05078,0 0.06641,-0.03906 0.03906,-0.08594c-0.03125,-0.04687 -0.07031,-0.08594 -0.08984,-0.08594c-0.02344,0 -0.03906,0.03906 -0.03906,0.08594M21.83594,8.1875c0.03125,0.04688 0.07031,0.08594 0.09375,0.08594c0.01953,0 0.03516,-0.03906 0.03516,-0.08594c0,-0.04687 -0.03906,-0.08594 -0.08984,-0.08594c-0.05078,0 -0.06641,0.03906 -0.03906,0.08594M16,8.51953c-0.13281,0.23047 -0.1875,0.47656 -0.1875,0.80859c0,0.41016 0.03516,0.51563 0.26953,0.78125c0.39844,0.45313 0.65234,0.55078 1.42578,0.55078c0.86719,0 0.91016,-0.04297 0.83203,-0.89844c-0.03125,-0.35156 -0.07422,-0.69141 -0.09766,-0.75391c-0.06641,-0.16406 -0.63281,-0.41797 -0.98438,-0.44141c-0.16797,-0.01172 -0.46484,-0.10156 -0.66016,-0.19922c-0.19141,-0.09766 -0.36328,-0.17969 -0.38281,-0.17969c-0.01562,0 -0.11328,0.14844 -0.21484,0.33203M17.09375,8.40234c0,0.02344 0.01953,0.04297 0.04297,0.04297c0.02344,0 0.04297,-0.01953 0.04297,-0.04297c0,-0.02344 -0.01953,-0.04297 -0.04297,-0.04297c-0.02344,0 -0.04297,0.01953 -0.04297,0.04297M22.30859,8.48438c0,0.02344 0.01953,0.04297 0.04297,0.04297c0.02344,0 0.04297,-0.01953 0.04297,-0.04297c0,-0.02344 -0.01953,-0.03906 -0.04297,-0.03906c-0.02344,0 -0.04297,0.01563 -0.04297,0.03906M10.83203,9.74219c-0.48437,0.10156 -0.5625,0.26953 -0.40625,0.91797c0.08203,0.33594 0.16016,0.46094 0.34766,0.55859c0.47656,0.24609 0.65625,0.15625 1.13281,-0.55859c0.44922,-0.66406 0.39844,-0.96875 -0.15234,-0.87891c-0.16016,0.02734 -0.30469,0.00391 -0.33594,-0.05078c-0.03516,-0.05078 -0.08594,-0.08984 -0.12109,-0.08203c-0.03125,0.00391 -0.24219,0.04687 -0.46484,0.09375M20.16797,10.11328c-0.04687,0.125 -0.07031,0.24609 -0.05078,0.26953c0.08594,0.08203 0.40234,-0.16797 0.37891,-0.29687c-0.04297,-0.23047 -0.23437,-0.21875 -0.32812,0.02734M49.50781,10.40234l-4.89844,0.04688l-0.29687,0.51172c-0.16406,0.28125 -0.375,0.66797 -0.46484,0.86328c-0.09375,0.19141 -0.23047,0.39844 -0.30078,0.45703c-0.07031,0.05859 -0.12891,0.14063 -0.12891,0.18359c0,0.23438 -1.35156,2.75391 -2.73828,5.10547c-0.59766,1.01172 -0.60938,0.83203 0.17969,2.22266c0.38672,0.67578 1.08594,1.88281 1.55469,2.67969c2,3.39453 2.42188,4.02734 2.90625,4.34375l0.22656,0.14844l0.39844,-0.79687c0.21875,-0.4375 0.49219,-0.92187 0.60938,-1.07422c0.22656,-0.30469 0.98047,-1.51562 1.94531,-3.13281c0.70313,-1.17188 0.8125,-1.35547 1.95703,-3.22656c0.46484,-0.75781 0.96484,-1.60937 1.11328,-1.89062c0.15234,-0.28125 0.33203,-0.60547 0.40625,-0.72266c0.07422,-0.11719 0.30469,-0.48047 0.51172,-0.80469c0.20703,-0.32422 0.36328,-0.67187 0.34766,-0.76953c-0.01953,-0.14453 -0.00781,-0.15234 0.0625,-0.04687c0.07031,0.10156 0.09766,0.07031 0.14453,-0.14844c0.03125,-0.15234 0.14453,-0.375 0.25781,-0.49609c0.11328,-0.12109 0.20313,-0.25391 0.20313,-0.30078c0,-0.04297 0.03125,-0.07813 0.06641,-0.07813c0.07031,0 0.30469,-0.50781 0.28516,-0.62109c-0.00391,-0.03516 0.02344,-0.0625 0.0625,-0.0625c0.03906,0 0.17578,-0.18359 0.30469,-0.40625c0.125,-0.22266 0.41797,-0.71094 0.64844,-1.08594c0.55859,-0.90234 0.55469,-0.98828 -0.01953,-0.96094c-0.24609,0.01172 -2.65234,0.03906 -5.34375,0.0625M39.26172,20.23438c-0.42969,0.64063 -1.50781,2.49219 -3.34766,5.73438c-0.39844,0.70313 -0.79687,1.39453 -0.87891,1.53516c-0.08594,0.14063 -0.33203,0.58203 -0.55469,0.98047c-0.21875,0.40234 -0.69922,1.22656 -1.0625,1.83594c-0.36328,0.60938 -1.18359,1.99219 -1.82031,3.07031c-0.63672,1.07813 -1.375,2.29688 -1.63672,2.71094c-0.44531,0.69141 -0.68359,1.16016 -0.625,1.21484c0.04687,0.04688 19.89062,0.10938 20.0625,0.06641c0.09375,-0.02734 0.17578,-0.09766 0.17578,-0.16406c0,-0.09766 -0.69922,-1.3125 -1.90625,-3.31641c-0.14062,-0.23437 -0.33203,-0.5625 -0.42578,-0.72656c-0.29297,-0.51562 -2.46484,-4.11719 -2.75391,-4.5625c-0.15234,-0.23437 -0.4375,-0.73437 -0.63672,-1.10937c-0.19922,-0.375 -0.625,-1.11719 -0.95312,-1.65234c-0.32422,-0.53516 -0.58984,-0.98047 -0.58984,-0.99609c0,-0.01172 -0.39062,-0.6875 -0.86719,-1.5c-1.50391,-2.5625 -1.86719,-3.20703 -1.86719,-3.30469c0,-0.17187 -0.125,-0.09766 -0.3125,0.18359M44.1875,21.98828c0,0.03516 0.07813,0.10938 0.17578,0.16797c0.20703,0.12891 0.38281,0.05859 0.23438,-0.09766c-0.10547,-0.11328 -0.41016,-0.16797 -0.41016,-0.07031M44.61328,22.52344c-0.14062,0.26172 -0.04687,0.28906 0.12109,0.03906c0.07813,-0.12109 0.10156,-0.21875 0.05859,-0.21875c-0.04687,0 -0.12891,0.08203 -0.17969,0.17969M44.44531,22.89844c0,0.02344 0.01953,0.04297 0.04297,0.04297c0.02344,0 0.04297,-0.01953 0.04297,-0.04297c0,-0.02344 -0.01953,-0.04297 -0.04297,-0.04297c-0.02344,0 -0.04297,0.01953 -0.04297,0.04297" fill="#34539d"></path><path d="M0,20v20l35.01953,-0.01953l35.02344,-0.02344l0.01953,-19.97656l0.02344,-19.98047h-70.08594v20M0.04297,20.04297c0,11 0.00781,15.5 0.01953,10c0.01563,-5.5 0.01563,-14.5 0,-20c-0.01172,-5.5 -0.01953,-1 -0.01953,10M9.79297,1.44141c-0.11719,0.12891 -0.12891,0.20313 -0.05859,0.33594c0.07031,0.12891 0.0625,0.17969 -0.03125,0.21484c-0.07031,0.02734 -0.14844,0.01172 -0.17578,-0.03516c-0.02734,-0.04297 -0.09766,-0.07812 -0.15234,-0.07812c-0.125,0.00391 -0.65625,0.69531 -0.65625,0.85938c0,0.06641 -0.09766,0.30078 -0.21484,0.51953c-0.23828,0.45313 -0.26172,0.60547 -0.10547,0.73438c0.08203,0.06641 0.32422,-0.05469 0.94531,-0.46875c0.68359,-0.45313 0.9375,-0.57031 1.375,-0.64844c0.49219,-0.08203 0.56641,-0.07422 0.84375,0.08984c0.22656,0.12891 0.31641,0.14844 0.34766,0.07031c0.05859,-0.16016 -0.35547,-0.64844 -0.50391,-0.58984c-0.08984,0.03125 -0.10937,0.00781 -0.07422,-0.08984c0.03125,-0.07422 0.01172,-0.13672 -0.03906,-0.13672c-0.05469,0 -0.09766,-0.04297 -0.09766,-0.09375c0,-0.17969 -0.44922,-0.67578 -0.61328,-0.67578c-0.08984,0 -0.14062,0.03906 -0.11328,0.08594c0.03125,0.05078 -0.05859,0.08594 -0.21875,0.08594c-0.22656,0 -0.26172,-0.02734 -0.22656,-0.17187c0.05859,-0.21484 -0.03906,-0.21875 -0.23047,-0.00781M9.42969,1.76172c0.03125,0.03125 0.08203,0.03125 0.11328,0c0.03125,-0.03125 0.00781,-0.05469 -0.05469,-0.05469c-0.0625,0 -0.08984,0.02344 -0.05859,0.05469M13.45703,1.875c-0.50781,0.07422 -0.68359,0.16016 -1.05078,0.5c-0.32812,0.30859 -0.33594,0.35547 -0.03516,0.35547c0.3125,0 0.46875,0.10938 0.40234,0.27734c-0.06641,0.17188 -0.62109,0.50781 -0.73047,0.44141c-0.04297,-0.02734 -0.07812,-0.01172 -0.07812,0.03516c0,0.04297 0.08984,0.10156 0.19922,0.12891c0.10938,0.02734 0.44141,0.28125 0.73438,0.5625c0.58594,0.56641 0.78906,0.65625 1.16406,0.51563l0.25391,-0.09766l-0.40625,-0.38281c-0.52344,-0.49219 -0.52734,-0.62891 -0.01953,-0.62891c0.46875,0 0.55859,-0.14453 0.30469,-0.5c-0.28125,-0.39844 -0.26562,-0.42187 0.35547,-0.55859c0.12891,-0.03125 0.23438,-0.10938 0.23438,-0.17969c0,-0.06641 -0.10547,-0.14844 -0.23437,-0.17969c-0.12891,-0.03125 -0.30469,-0.12891 -0.38672,-0.21484c-0.08594,-0.08594 -0.17969,-0.15234 -0.21484,-0.14844c-0.03125,0.00781 -0.25391,0.03906 -0.49219,0.07422M15.78906,2.39844c-0.22266,0.19141 -0.40625,0.41016 -0.40625,0.48828c0,0.3125 1.51953,0.97266 1.76563,0.76953c0.13672,-0.11328 0.15234,-0.38281 0.03125,-0.45703c-0.04688,-0.03125 -0.0625,-0.15234 -0.03125,-0.26953l0.05469,-0.21484l-0.17187,0.10547c-0.26172,0.16406 -0.44922,0.04297 -0.44922,-0.28516c0,-0.28516 -0.125,-0.49219 -0.29687,-0.48437c-0.04687,0 -0.26953,0.16016 -0.49609,0.34766M23.00781,2.14844c-0.05469,0.05859 -0.10156,0.24609 -0.10156,0.42578c0,0.41406 0.24609,0.57813 0.5625,0.37109c0.11328,-0.07422 0.21094,-0.19141 0.21875,-0.26172c0.00391,-0.06641 0.01563,-0.17187 0.02734,-0.23047c0.05078,-0.34375 -0.44922,-0.55859 -0.70703,-0.30469M17.16016,2.38281c-0.05859,0.21094 -0.02344,0.33203 0.07031,0.23828c0.02734,-0.02734 0.03516,-0.13672 0.01953,-0.24609l-0.03125,-0.19922l-0.05859,0.20703M13.38281,2.375c-0.02734,0.04688 -0.01172,0.11328 0.03906,0.14453c0.13281,0.08203 0.21875,-0.03125 0.10938,-0.14062c-0.0625,-0.0625 -0.10937,-0.0625 -0.14844,-0.00391M11.53906,2.77344c0,0.02344 0.01953,0.04297 0.04297,0.04297c0.02344,0 0.04297,-0.01953 0.04297,-0.04297c0,-0.02344 -0.01953,-0.04297 -0.04297,-0.04297c-0.02344,0 -0.04297,0.01953 -0.04297,0.04297M13.76172,2.77344c0,0.02344 0.01953,0.04297 0.04297,0.04297c0.02344,0 0.04297,-0.01953 0.04297,-0.04297c0,-0.02344 -0.01953,-0.04297 -0.04297,-0.04297c-0.02344,0 -0.04297,0.01953 -0.04297,0.04297M5.73047,3.75781c-0.35937,0.07813 -0.51562,0.27734 -0.51562,0.64453c0,0.4375 0.07422,0.54297 0.38672,0.54297c0.15625,0 0.29688,0.04297 0.3125,0.09375c0.01953,0.0625 0.10547,0.05859 0.26953,-0.01562c0.17188,-0.07813 0.25391,-0.08203 0.29688,-0.01563c0.05078,0.08203 0.39063,0.14063 0.68359,0.11719c0.29297,-0.02344 -0.23828,-0.85937 -0.54297,-0.85937c-0.14062,0 -0.24609,-0.07812 -0.33594,-0.25c-0.16406,-0.32031 -0.19922,-0.33594 -0.55469,-0.25781M18.70313,4.16406c-0.53906,0.19141 -0.59375,0.26953 -0.19141,0.27344l0.33594,0.00391l-0.26562,0.11719c-0.14844,0.0625 -0.35937,0.09766 -0.47266,0.07422c-0.16406,-0.03125 -0.22266,0.00781 -0.30078,0.21484c-0.0625,0.16406 -0.22266,0.32031 -0.45703,0.4375l-0.35937,0.18359l0.03125,0.46484c0.01562,0.25391 0.02344,0.46484 0.01562,0.46484c-0.00781,0 -0.21484,-0.19531 -0.45703,-0.42969c-0.24609,-0.23437 -0.48047,-0.40234 -0.52344,-0.37891c-0.10156,0.06641 -0.09766,0.61328 0.00391,0.67578c0.04688,0.02734 0.24609,0.39063 0.44531,0.80859c0.38281,0.80078 0.57422,0.96094 0.92969,0.76953c0.19141,-0.10156 0.21875,-0.25781 0.07031,-0.40625c-0.07812,-0.07422 0.01563,-0.20703 0.40234,-0.57031c0.57422,-0.53906 0.75781,-0.60547 2.10156,-0.75781c0.51172,-0.05859 0.97266,-0.14844 1.02344,-0.19922c0.17969,-0.17969 0.41797,-1.05469 0.33203,-1.21484c-0.125,-0.23828 -0.625,-0.42969 -1.16797,-0.45312c-0.27344,-0.01172 -0.55078,-0.06641 -0.60937,-0.125c-0.14844,-0.14063 -0.39453,-0.12891 -0.88672,0.04687M6.58203,4.39063c0,0.02344 0.01953,0.04297 0.04297,0.04297c0.02344,0 0.04297,-0.01953 0.04297,-0.04297c0,-0.02344 -0.01953,-0.03906 -0.04297,-0.03906c-0.02344,0 -0.04297,0.01563 -0.04297,0.03906M6.49609,4.64844c0,0.02344 0.01953,0.04297 0.04297,0.04297c0.02344,0 0.04297,-0.01953 0.04297,-0.04297c0,-0.02344 -0.01953,-0.04297 -0.04297,-0.04297c-0.02344,0 -0.04297,0.01953 -0.04297,0.04297M11.32422,4.9375c-0.42969,0.26563 -0.98047,0.84375 -0.98047,1.02734c0,0.09766 -0.03906,0.17578 -0.08594,0.17578c-0.14844,0 -0.09375,0.34375 0.08984,0.60547c0.21875,0.30469 0.41016,0.3125 1.01172,0.03125c0.25391,-0.11719 0.48047,-0.19531 0.5,-0.17187c0.07422,0.07422 -0.06641,0.625 -0.18359,0.72266c-0.16016,0.12891 -0.03516,0.67578 0.19141,0.85547c0.11328,0.08594 0.1875,0.28906 0.23047,0.60156c0.07813,0.60938 0.15234,0.74219 0.51953,0.89453c0.45703,0.19141 1.05859,0.11719 1.25781,-0.14844c0.14844,-0.19922 0.15234,-0.25781 0.05469,-0.67578c-0.11719,-0.49219 -0.23438,-0.61328 -0.85156,-0.875c-0.21094,-0.08984 -0.39844,-0.17187 -0.41406,-0.18359c-0.01172,-0.00781 0.08203,-0.21094 0.21484,-0.44531l0.23828,-0.42578l0.41016,-0.03906c0.49219,-0.04687 0.65234,-0.16406 0.49219,-0.35937c-0.07812,-0.09375 -0.26953,-0.12891 -0.69531,-0.12891h-0.58984l-0.42969,-0.4375c-0.29688,-0.30469 -0.45703,-0.55078 -0.51953,-0.8125c-0.05469,-0.20313 -0.12109,-0.37109 -0.14844,-0.37109c-0.03125,0 -0.17187,0.07031 -0.3125,0.16016M6.58203,4.90234c0,0.02344 0.01953,0.04297 0.04297,0.04297c0.02344,0 0.04297,-0.01953 0.04297,-0.04297c0,-0.02344 -0.01953,-0.03906 -0.04297,-0.03906c-0.02344,0 -0.04297,0.01563 -0.04297,0.03906M0.67578,5.42578c-0.17187,0.20313 -0.32422,0.69922 -0.27344,0.88672c0.02344,0.08984 0.11719,0.1875 0.20703,0.21484c0.08594,0.02734 0.19922,0.125 0.25,0.21484c0.12109,0.22656 0.35938,0.20703 0.67188,-0.05469c0.48438,-0.40625 0.30859,-1.13672 -0.31641,-1.3125c-0.40625,-0.11328 -0.40234,-0.11328 -0.53906,0.05078M17.60938,5.625c-0.26953,0.37891 -0.18359,0.51563 0.33594,0.51563c0.51953,0 0.55078,-0.10547 0.14063,-0.5l-0.28906,-0.28125l-0.1875,0.26563M22.00781,5.78516c-0.37891,0.125 -1.17187,0.64453 -1.53516,1.00781c-0.33984,0.33594 -0.375,0.40625 -0.28906,0.5625c0.21875,0.41406 0.64844,0.83203 0.85156,0.83203c0.23828,0 0.34766,0.28125 0.25781,0.67969c-0.10547,0.46094 0.01563,0.9375 0.28906,1.17578c0.12109,0.10547 0.25391,0.19141 0.29297,0.19141c0.03906,0 0.14453,-0.23437 0.23047,-0.52344c0.08594,-0.28906 0.22266,-0.56641 0.30859,-0.61719c0.11328,-0.07031 0.14844,-0.20703 0.14844,-0.53516c0,-0.51562 0.03906,-0.54297 0.81641,-0.54297h0.54297l0.17969,-0.25391c0.10156,-0.14062 0.16016,-0.28906 0.13672,-0.33203c-0.02734,-0.04297 -0.25,-0.125 -0.5,-0.18359c-0.57422,-0.13281 -0.66016,-0.20703 -0.66016,-0.56641c0,-0.30859 -0.08984,-0.52734 -0.32422,-0.80078c-0.14062,-0.16406 -0.41797,-0.19922 -0.74609,-0.09375M0.51172,6.01172c0,0.02344 0.01953,0.04297 0.04297,0.04297c0.02344,0 0.04297,-0.01953 0.04297,-0.04297c0,-0.02344 -0.01953,-0.04297 -0.04297,-0.04297c-0.02344,0 -0.04297,0.01953 -0.04297,0.04297M27.20703,6.39453c-0.10547,0.04688 -0.20703,0.18359 -0.23828,0.33594l-0.05859,0.26172h-0.375c-0.48047,0 -0.60156,0.17969 -0.44531,0.65625l0.10938,0.32422h1.31641l-0.03516,0.17188c-0.01562,0.09375 -0.03516,0.19922 -0.03906,0.23438c-0.00391,0.03516 -0.0625,0.06641 -0.12891,0.06641c-0.06641,0 -0.14844,0.08203 -0.17969,0.18359c-0.04297,0.13672 -0.00781,0.23047 0.12891,0.34375c0.10547,0.08203 0.24609,0.15234 0.3125,0.15234c0.1875,0 0.13672,0.14453 -0.11719,0.33203c-0.55859,0.41406 -0.63672,0.49609 -0.76172,0.80078c-0.07422,0.17578 -0.14844,0.31641 -0.16406,0.31641c-0.01953,0 -0.32812,-0.10156 -0.6875,-0.22266l-0.65234,-0.22656l-0.46094,0.24609c-0.25,0.13672 -0.45703,0.27344 -0.45703,0.30469c0,0.03125 0.26562,0.57031 0.58594,1.19531l0.58594,1.13672l-0.23828,0.51172c-0.15234,0.31641 -0.24219,0.66016 -0.24609,0.90234l-0.00391,0.39063l0.32031,0.14063c0.17578,0.07813 0.6875,0.26953 1.13281,0.42578l0.8125,0.28125l0.69922,1.23047c0.38281,0.67969 0.75391,1.30859 0.82031,1.40234c0.06641,0.09375 0.47656,0.78516 0.91406,1.53516c0.4375,0.75 1.12109,1.92188 1.51953,2.60156c0.40234,0.67969 0.91406,1.55469 1.14063,1.9375c0.22656,0.38672 0.60547,1.07812 0.84766,1.53516c0.23828,0.46094 0.47266,0.87109 0.51953,0.91797c0.05469,0.05469 0.15625,-0.00391 0.28906,-0.16797c0.11719,-0.14062 0.21094,-0.28516 0.21094,-0.32031c0.00391,-0.03516 0.17188,-0.34375 0.375,-0.68359c0.33203,-0.55078 1.53516,-2.62109 2.85938,-4.92188c0.25781,-0.44531 0.58203,-1.02344 0.72266,-1.28125c0.14063,-0.25781 0.8125,-1.42969 1.49609,-2.60156c0.68359,-1.17187 1.32031,-2.26562 1.41016,-2.42969c0.08984,-0.16406 0.28516,-0.51172 0.42969,-0.76953c0.14063,-0.25781 0.45703,-0.79297 0.69922,-1.19141c0.24609,-0.39844 0.60938,-1.02734 0.8125,-1.39844l0.36719,-0.66797l-4.01562,0.03125l-4.01953,0.03125l0.13281,-0.27734c0.10547,-0.22266 0.11328,-0.30078 0.03125,-0.38672c-0.23437,-0.23047 -3.59766,-0.56641 -4.16016,-0.41406c-0.44141,0.12109 -0.85156,0.375 -1.02344,0.63672l-0.13672,0.20703l0.21094,0.45703c0.11719,0.25391 0.23828,0.56641 0.26953,0.69531c0.05078,0.20703 0.03516,0.23047 -0.15234,0.23047c-0.21875,0 -0.40625,-0.27734 -0.40625,-0.59766c0,-0.09375 -0.03125,-0.16797 -0.07031,-0.16797c-0.03906,0 -0.13672,-0.21484 -0.21875,-0.47656c-0.08594,-0.26172 -0.34375,-0.89844 -0.57812,-1.41797c-0.23437,-0.51562 -0.41406,-0.94922 -0.39844,-0.96094c0.10156,-0.08984 0.40625,-0.12109 0.44922,-0.04687c0.03125,0.04687 0.09375,0.08594 0.13672,0.08594c0.10547,0 0.10547,-0.23047 0,-0.26953c-0.04297,-0.01562 -0.09375,-0.19531 -0.11719,-0.40234c-0.03516,-0.39453 -0.21484,-0.60547 -0.50391,-0.60547c-0.08594,0 -0.34766,-0.09766 -0.57812,-0.21484c-0.44141,-0.22266 -0.6875,-0.25391 -1,-0.12891M19.10156,7.07813c-0.19141,0.03516 -0.25,0.08984 -0.23047,0.21875c0.05859,0.35938 0.01563,0.5 -0.22656,0.75391l-0.25391,0.26563l0.125,0.18359c0.14063,0.20313 0.21094,0.66016 0.21875,1.44531l0.00391,0.52344l0.58984,0.01172c0.58203,0.01172 0.69922,-0.04687 0.46484,-0.24219c-0.07031,-0.05469 -0.13672,-0.18359 -0.15234,-0.28906c-0.02344,-0.17187 -0.11719,-0.20312 -0.40625,-0.12891c-0.17969,0.04688 -0.20703,-0.23047 -0.08984,-0.90625c0.125,-0.72266 0.22266,-1.00391 0.44141,-1.25391c0.32422,-0.375 0.0625,-0.69141 -0.48438,-0.58203M14.00391,7.65625c-0.00781,0.10547 -0.01562,0.23438 -0.01953,0.28906c-0.00781,0.05469 0.03906,0.11719 0.09766,0.13672c0.12891,0.04297 0.14063,-0.30469 0.01953,-0.49219c-0.06641,-0.10547 -0.08594,-0.09375 -0.09766,0.06641M27.51953,7.76563c0,0.05078 0.03906,0.06641 0.08594,0.03906c0.04688,-0.03125 0.08594,-0.07031 0.08594,-0.08984c0,-0.02344 -0.03906,-0.03906 -0.08594,-0.03906c-0.04687,0 -0.08594,0.03906 -0.08594,0.08984M27.96484,7.78516c-0.07031,0.08203 -0.05078,0.13672 0.07422,0.21484c0.08984,0.05859 0.16797,0.06641 0.16797,0.02344c0,-0.04688 -0.04297,-0.10938 -0.09766,-0.14063c-0.06641,-0.03906 -0.05859,-0.07812 0.02344,-0.13281c0.06641,-0.04297 0.07422,-0.07031 0.01953,-0.07422c-0.05469,0 -0.13672,0.05078 -0.1875,0.10938M27.86328,8.10156c0,0.04688 0.03906,0.08594 0.08984,0.08594c0.05078,0 0.06641,-0.03906 0.03906,-0.08594c-0.03125,-0.04687 -0.07031,-0.08594 -0.08984,-0.08594c-0.02344,0 -0.03906,0.03906 -0.03906,0.08594M21.83594,8.1875c0.03125,0.04688 0.07031,0.08594 0.09375,0.08594c0.01953,0 0.03516,-0.03906 0.03516,-0.08594c0,-0.04687 -0.03906,-0.08594 -0.08984,-0.08594c-0.05078,0 -0.06641,0.03906 -0.03906,0.08594M16,8.51953c-0.13281,0.23047 -0.1875,0.47656 -0.1875,0.80859c0,0.41016 0.03516,0.51563 0.26953,0.78125c0.39844,0.45313 0.65234,0.55078 1.42578,0.55078c0.86719,0 0.91016,-0.04297 0.83203,-0.89844c-0.03125,-0.35156 -0.07422,-0.69141 -0.09766,-0.75391c-0.06641,-0.16406 -0.63281,-0.41797 -0.98438,-0.44141c-0.16797,-0.01172 -0.46484,-0.10156 -0.66016,-0.19922c-0.19141,-0.09766 -0.36328,-0.17969 -0.38281,-0.17969c-0.01562,0 -0.11328,0.14844 -0.21484,0.33203M17.09375,8.40234c0,0.02344 0.01953,0.04297 0.04297,0.04297c0.02344,0 0.04297,-0.01953 0.04297,-0.04297c0,-0.02344 -0.01953,-0.04297 -0.04297,-0.04297c-0.02344,0 -0.04297,0.01953 -0.04297,0.04297M22.30859,8.48438c0,0.02344 0.01953,0.04297 0.04297,0.04297c0.02344,0 0.04297,-0.01953 0.04297,-0.04297c0,-0.02344 -0.01953,-0.03906 -0.04297,-0.03906c-0.02344,0 -0.04297,0.01563 -0.04297,0.03906M10.83203,9.74219c-0.48437,0.10156 -0.5625,0.26953 -0.40625,0.91797c0.08203,0.33594 0.16016,0.46094 0.34766,0.55859c0.47656,0.24609 0.65625,0.15625 1.13281,-0.55859c0.44922,-0.66406 0.39844,-0.96875 -0.15234,-0.87891c-0.16016,0.02734 -0.30469,0.00391 -0.33594,-0.05078c-0.03516,-0.05078 -0.08594,-0.08984 -0.12109,-0.08203c-0.03125,0.00391 -0.24219,0.04687 -0.46484,0.09375M20.16797,10.11328c-0.04687,0.125 -0.07031,0.24609 -0.05078,0.26953c0.08594,0.08203 0.40234,-0.16797 0.37891,-0.29687c-0.04297,-0.23047 -0.23437,-0.21875 -0.32812,0.02734M49.50781,10.40234l-4.89844,0.04688l-0.29687,0.51172c-0.16406,0.28125 -0.375,0.66797 -0.46484,0.86328c-0.09375,0.19141 -0.23047,0.39844 -0.30078,0.45703c-0.07031,0.05859 -0.12891,0.14063 -0.12891,0.18359c0,0.23438 -1.35156,2.75391 -2.73828,5.10547c-0.59766,1.01172 -0.60938,0.83203 0.17969,2.22266c0.38672,0.67578 1.08594,1.88281 1.55469,2.67969c2,3.39453 2.42188,4.02734 2.90625,4.34375l0.22656,0.14844l0.39844,-0.79687c0.21875,-0.4375 0.49219,-0.92187 0.60938,-1.07422c0.22656,-0.30469 0.98047,-1.51562 1.94531,-3.13281c0.70313,-1.17188 0.8125,-1.35547 1.95703,-3.22656c0.46484,-0.75781 0.96484,-1.60937 1.11328,-1.89062c0.15234,-0.28125 0.33203,-0.60547 0.40625,-0.72266c0.07422,-0.11719 0.30469,-0.48047 0.51172,-0.80469c0.20703,-0.32422 0.36328,-0.67187 0.34766,-0.76953c-0.01953,-0.14453 -0.00781,-0.15234 0.0625,-0.04687c0.07031,0.10156 0.09766,0.07031 0.14453,-0.14844c0.03125,-0.15234 0.14453,-0.375 0.25781,-0.49609c0.11328,-0.12109 0.20313,-0.25391 0.20313,-0.30078c0,-0.04297 0.03125,-0.07813 0.06641,-0.07813c0.07031,0 0.30469,-0.50781 0.28516,-0.62109c-0.00391,-0.03516 0.02344,-0.0625 0.0625,-0.0625c0.03906,0 0.17578,-0.18359 0.30469,-0.40625c0.125,-0.22266 0.41797,-0.71094 0.64844,-1.08594c0.55859,-0.90234 0.55469,-0.98828 -0.01953,-0.96094c-0.24609,0.01172 -2.65234,0.03906 -5.34375,0.0625M39.26172,20.23438c-0.42969,0.64063 -1.50781,2.49219 -3.34766,5.73438c-0.39844,0.70313 -0.79687,1.39453 -0.87891,1.53516c-0.08594,0.14063 -0.33203,0.58203 -0.55469,0.98047c-0.21875,0.40234 -0.69922,1.22656 -1.0625,1.83594c-0.36328,0.60938 -1.18359,1.99219 -1.82031,3.07031c-0.63672,1.07813 -1.375,2.29688 -1.63672,2.71094c-0.44531,0.69141 -0.68359,1.16016 -0.625,1.21484c0.04687,0.04688 19.89062,0.10938 20.0625,0.06641c0.09375,-0.02734 0.17578,-0.09766 0.17578,-0.16406c0,-0.09766 -0.69922,-1.3125 -1.90625,-3.31641c-0.14062,-0.23437 -0.33203,-0.5625 -0.42578,-0.72656c-0.29297,-0.51562 -2.46484,-4.11719 -2.75391,-4.5625c-0.15234,-0.23437 -0.4375,-0.73437 -0.63672,-1.10937c-0.19922,-0.375 -0.625,-1.11719 -0.95312,-1.65234c-0.32422,-0.53516 -0.58984,-0.98047 -0.58984,-0.99609c0,-0.01172 -0.39062,-0.6875 -0.86719,-1.5c-1.50391,-2.5625 -1.86719,-3.20703 -1.86719,-3.30469c0,-0.17187 -0.125,-0.09766 -0.3125,0.18359M44.1875,21.98828c0,0.03516 0.07813,0.10938 0.17578,0.16797c0.20703,0.12891 0.38281,0.05859 0.23438,-0.09766c-0.10547,-0.11328 -0.41016,-0.16797 -0.41016,-0.07031M44.61328,22.52344c-0.14062,0.26172 -0.04687,0.28906 0.12109,0.03906c0.07813,-0.12109 0.10156,-0.21875 0.05859,-0.21875c-0.04687,0 -0.12891,0.08203 -0.17969,0.17969M44.44531,22.89844c0,0.02344 0.01953,0.04297 0.04297,0.04297c0.02344,0 0.04297,-0.01953 0.04297,-0.04297c0,-0.02344 -0.01953,-0.04297 -0.04297,-0.04297c-0.02344,0 -0.04297,0.01953 -0.04297,0.04297" fill="#e3e3e2"></path></g></g></g></g></svg>